<?xml version="1.0" encoding="UTF-8" standalone="no"?>
<svg
   xmlns:dc="http://purl.org/dc/elements/1.1/"
   xmlns:cc="http://creativecommons.org/ns#"
   xmlns:rdf="http://www.w3.org/1999/02/22-rdf-syntax-ns#"
   xmlns:svg="http://www.w3.org/2000/svg"
   xmlns="http://www.w3.org/2000/svg"
   xmlns:sodipodi="http://sodipodi.sourceforge.net/DTD/sodipodi-0.dtd"
   xmlns:inkscape="http://www.inkscape.org/namespaces/inkscape"
   inkscape:version="1.0beta2 (2b71d25, 2019-12-03)"
   sodipodi:docname="half.svg"
   id="svg2"
   height="101.41235"
   width="30.350561"
   version="1.1">
  <sodipodi:namedview
     inkscape:current-layer="svg2"
     inkscape:window-maximized="1"
     inkscape:window-y="23"
     inkscape:window-x="0"
     inkscape:cy="51.692511"
     inkscape:cx="38.72933"
     inkscape:zoom="7.5500121"
     showgrid="false"
     id="namedview1150"
     inkscape:window-height="1049"
     inkscape:window-width="1920"
     inkscape:pageshadow="2"
     inkscape:pageopacity="0"
     guidetolerance="10"
     gridtolerance="10"
     objecttolerance="10"
     borderopacity="1"
     inkscape:document-rotation="0"
     bordercolor="#666666"
     pagecolor="#ffffff" />
  <metadata
     id="metadata8">
    <rdf:RDF>
      <cc:Work
         rdf:about="">
        <dc:format>image/svg+xml</dc:format>
        <dc:type
           rdf:resource="http://purl.org/dc/dcmitype/StillImage" />
        <dc:title></dc:title>
      </cc:Work>
    </rdf:RDF>
  </metadata>
  <defs
     id="defs6" />
  <g
     id="g3862"
     transform="translate(-85.093708,-46.942827)">
    <g
       style="fill:#b3b3b3"
       id="stave"
       transform="translate(0.67340029,-0.33670034)" />
    <path
       inkscape:connector-curvature="0"
       style="font-style:normal;font-weight:normal;font-size:128.473px;line-height:125%;font-family:Sans;letter-spacing:0px;word-spacing:0px;fill:#000000;fill-opacity:1;stroke:none"
       id="path3859"
       d="m 85.093708,139.34944 c -5e-6,-4.5246 2.149825,-8.52714 6.449494,-12.00763 4.299646,-3.56747 8.852228,-5.35121 13.657748,-5.35123 2.78211,2e-5 5.26916,0.73961 7.46118,2.2188 V 46.942827 h 2.78214 v 84.445033 c -4e-5,4.87267 -2.06556,8.91872 -6.19658,12.13816 -4.13107,3.21943 -8.68365,4.82916 -13.657747,4.82916 -2.782148,0 -5.227051,-0.82662 -7.334718,-2.47984 -2.107683,-1.74024 -3.161522,-3.91554 -3.161517,-6.5259 m 5.81719,3.91554 c 4.468261,0 8.978687,-1.95776 13.531292,-5.8733 4.63686,-3.91553 6.9553,-6.83042 6.95533,-8.7447 -3e-5,-1.21814 -0.50587,-1.82723 -1.51753,-1.82725 -3.11938,2e-5 -7.41904,1.87077 -12.898981,5.61227 -5.395665,3.6545 -8.09349,6.69992 -8.093481,9.13625 -9e-6,1.13116 0.674447,1.69673 2.02337,1.69673" />
  </g>
</svg>
