<?xml version="1.0" encoding="UTF-8" standalone="no"?>
<svg
   xmlns:dc="http://purl.org/dc/elements/1.1/"
   xmlns:cc="http://creativecommons.org/ns#"
   xmlns:rdf="http://www.w3.org/1999/02/22-rdf-syntax-ns#"
   xmlns:svg="http://www.w3.org/2000/svg"
   xmlns="http://www.w3.org/2000/svg"
   xmlns:sodipodi="http://sodipodi.sourceforge.net/DTD/sodipodi-0.dtd"
   xmlns:inkscape="http://www.inkscape.org/namespaces/inkscape"
   xml:space="preserve"
   enable-background="new 0 -52.51 599 450.489"
   viewBox="0 -52.51 162.08327 445.09487"
   height="445.09488"
   width="162.08327"
   y="0px"
   x="0px"
   inkscape:version="1.0beta2 (2b71d25, 2019-12-03)"
   sodipodi:docname="hundredtwentyeighth.svg"
   id="svg2"
   version="1.1"><metadata
   id="metadata74"><rdf:RDF><cc:Work
       rdf:about=""><dc:format>image/svg+xml</dc:format><dc:type
         rdf:resource="http://purl.org/dc/dcmitype/StillImage" /></cc:Work></rdf:RDF></metadata><defs
   id="defs72" />
<sodipodi:namedview
   inkscape:document-rotation="0"
   inkscape:window-width="1165"
   inkscape:window-height="1049"
   inkscape:pageopacity="0.0"
   inkscape:document-units="px"
   inkscape:pageshadow="2"
   inkscape:window-x="0"
   inkscape:current-layer="svg2"
   inkscape:window-y="23"
   inkscape:window-maximized="0"
   fit-margin-right="1"
   fit-margin-bottom="1"
   id="base"
   inkscape:cy="266.38183"
   borderopacity="1.0"
   showgrid="false"
   inkscape:cx="151.0427"
   bordercolor="#666666"
   fit-margin-top="1"
   fit-margin-left="1"
   inkscape:zoom="0.9899495"
   pagecolor="#ffffff">
	</sodipodi:namedview>

<path
   id="path69"
   d="m 88.89408,3.041883 c 0.253,14.142 1.694,17.678 6.745,28.284 6.614,13.892 33.335,25.254 47.981,48.992 14.647,23.737997 14.229,37.518997 14.229,51.659997 0,14.143 -3.123,24.458 -3.123,24.458 0,0 0.598,-1.811 -2.372,-8.759 1.011,-9.092 1.937,-26.126 -10.249,-49.681997 -5.527,-10.686 -30.662,-28.642 -53.391,-43.794 0.253,14.142 1.694,17.678 6.745,28.284 6.614,13.892 33.335,25.253997 47.981,48.991997 14.647,23.738 14.229,37.519 14.229,51.66 0,14.143 -3.123,24.458 -3.123,24.458 0,0 0.598,-1.811 -2.372,-8.759 1.011,-9.092 1.937,-26.126 -10.249,-49.682 -5.527,-10.686 -30.483,-28.642 -53.212,-43.794 0.505,17.173 2.199,23.086 10.28,34.197 11.056,15.202 29.8,24.244 44.951,44.447 15.152,20.202 16.76,52.329 10.245,72.99 0,0 -1.189,-3.086 -2.878,-6.642 4.97,-60.018 -39.513,-73.058 -62.599,-92.379 0,25.254 9.271,38.657 40.585,65.426 31.314,26.77 31.177,54.753 31.284,68.39 0.179,22.744 -10.693,41.793 -16.132,48.788 2.02,-7.071 20.232,-53.449 1.515,-80.307 -9.488,-13.616 -33.335,-21.214 -57.073,-40.406 0,0 0.505,90.029 0,133.466 -12.122,31.82 -41.416,37.755 -56.568,37.755 -15.152,0 -30.4410004,-9.021 -30.8100004,-21.213 -0.457,-15.113 11.1110004,-28.79 29.8000004,-37.881 18.688,-9.092 42.931,-9.597 51.518,-2.525 l -0.03,-380.410997 6.091,-0.06 0.179,13.288 c 0.065,4.918 0.622,8.964 6.893,16.007 9.481,10.649 28.285,26.264 41.416,41.921 13.133,15.657 18.689,30.855 19.816,45.033 1.336,16.821 -3.148,37.799997 -3.148,37.799997 0,0 0.326,-1.627 -2.199,-7.183997 0.449,-35.82 -4.871,-40.294 -16.488,-56.456 -11.617,-16.162 -23.233,-22.221 -46.467,-36.362"
   stroke="#000000"
   inkscape:connector-curvature="0"
   sodipodi:nodetypes="cczssccscsscccsscsccssscsccsssscc" />
</svg>
