<?xml version="1.0" encoding="UTF-8" standalone="no"?>
<svg
   xmlns:dc="http://purl.org/dc/elements/1.1/"
   xmlns:cc="http://creativecommons.org/ns#"
   xmlns:rdf="http://www.w3.org/1999/02/22-rdf-syntax-ns#"
   xmlns:svg="http://www.w3.org/2000/svg"
   xmlns="http://www.w3.org/2000/svg"
   xmlns:sodipodi="http://sodipodi.sourceforge.net/DTD/sodipodi-0.dtd"
   xmlns:inkscape="http://www.inkscape.org/namespaces/inkscape"
   style="display:inline"
   sodipodi:docname="sixtyfourth.svg"
   inkscape:version="1.0beta2 (2b71d25, 2019-12-03)"
   version="1.1"
   id="svg2"
   height="393.93384"
   width="162.08365">
  <defs
     id="defs4" />
  <sodipodi:namedview
     inkscape:document-rotation="0"
     fit-margin-bottom="1"
     fit-margin-right="1"
     fit-margin-left="1"
     fit-margin-top="1"
     inkscape:window-maximized="0"
     inkscape:window-y="23"
     inkscape:window-x="0"
     inkscape:window-height="1049"
     inkscape:window-width="1920"
     showgrid="false"
     inkscape:current-layer="layer2"
     inkscape:document-units="px"
     inkscape:cy="100.6629"
     inkscape:cx="14.302817"
     inkscape:zoom="1.4"
     inkscape:pageshadow="2"
     inkscape:pageopacity="0.0"
     borderopacity="1.0"
     bordercolor="#666666"
     pagecolor="#ffffff"
     id="base" />
  <metadata
     id="metadata7">
    <rdf:RDF>
      <cc:Work
         rdf:about="">
        <dc:format>image/svg+xml</dc:format>
        <dc:type
           rdf:resource="http://purl.org/dc/dcmitype/StillImage" />
        <dc:title />
      </cc:Work>
    </rdf:RDF>
  </metadata>
  <g
     transform="translate(-335.3728,-214.45107)"
     inkscape:label="Vectors"
     id="layer2"
     inkscape:groupmode="layer">
    <g
       transform="translate(0,1.0101525)"
       style="stroke:#000000;stroke-width:5;stroke-miterlimit:4;stroke-dasharray:none;stroke-opacity:0.942584"
       id="g3865" />
    <path
       sodipodi:nodetypes="cczssccscsscccsscsccssscsccsssscc"
       inkscape:connector-curvature="0"
       id="path3872"
       d="M 418.20315,216.01452 V 545.2656 c -8.58629,-7.07106 -32.82995,-6.56599 -51.51777,2.52539 -18.68782,9.09137 -30.25641,22.76832 -29.79951,37.88072 0.36863,12.19295 15.65737,21.2132 30.80966,21.2132 15.15229,0 44.4467,-5.93464 56.56854,-37.75445 0.50507,-43.43656 0,-133.46641 0,-133.46641 23.73858,19.1929 47.58486,26.79008 57.07362,40.40611 18.71695,26.85814 0.50507,73.23605 -1.51523,80.30712 5.43855,-6.99492 16.31038,-26.04425 16.13181,-48.78844 -0.10707,-13.63664 0.0306,-41.62021 -31.2841,-68.38925 -31.31473,-26.76905 -40.58467,-40.17151 -40.58467,-65.42532 23.08557,19.3207 67.56818,32.36076 62.59881,92.37819 1.68855,3.55566 2.87728,6.64214 2.87728,6.64214 6.51523,-20.66173 4.90808,-52.78791 -10.24421,-72.99096 -15.15229,-20.20305 -33.89609,-29.24513 -44.95178,-44.44671 -8.08122,-11.11168 -9.77503,-17.02466 -10.2801,-34.19725 22.72843,15.15228 47.68409,33.10869 53.21158,43.7937 12.18575,23.55586 11.25961,40.58993 10.24946,49.6813 2.96918,6.94852 2.37219,8.75961 2.37219,8.75961 0,0 3.12237,-10.316 3.12237,-24.45813 0,-14.14214 0.41842,-27.92187 -14.22879,-51.66045 -14.64722,-23.73859 -41.36722,-35.10082 -47.98225,-48.9924 -5.05076,-10.6066 -6.31345,-14.14214 -6.56599,-28.28427 23.23351,14.14213 34.85026,20.20305 46.46702,36.36549 11.61675,16.16244 16.93799,20.63633 16.48894,56.4565 2.52538,5.55584 2.19887,7.18311 2.19887,7.18311 0,0 4.48442,-20.97861 3.14776,-37.79933 -1.12668,-14.17837 -6.68329,-29.37582 -19.81527,-45.03318 -13.13198,-15.65737 -31.93502,-31.27134 -41.41625,-41.92133 -6.27013,-7.04305 -6.82641,-11.08869 -6.8925,-16.00662 l -0.17857,-13.28781 z"
       style="fill:#000000;fill-opacity:1;stroke:#000000;stroke-width:1px;stroke-linecap:butt;stroke-linejoin:miter;stroke-opacity:1" />
  </g>
</svg>
